<mxfile host="app.diagrams.net" modified="2024-06-26T10:25:53.955Z" agent="Mozilla/5.0 (Windows NT 10.0; Win64; x64) AppleWebKit/537.36 (KHTML, like Gecko) Chrome/126.0.0.0 Safari/537.36" etag="V3sNPKvSBFwQAx5TYEM0" version="24.6.3" type="github">
  <diagram name="第 1 页" id="m_XQLpIjiW6CSPor3rOt">
    <mxGraphModel dx="1023" dy="525" grid="1" gridSize="10" guides="1" tooltips="1" connect="1" arrows="1" fold="1" page="1" pageScale="1" pageWidth="827" pageHeight="1169" math="0" shadow="0">
      <root>
        <mxCell id="0" />
        <mxCell id="1" parent="0" />
        <mxCell id="3rowkWECRtVdp-gIz-65-1" value="輸入指令" style="rounded=1;whiteSpace=wrap;html=1;" vertex="1" parent="1">
          <mxGeometry x="294" y="420" width="120" height="60" as="geometry" />
        </mxCell>
        <mxCell id="3rowkWECRtVdp-gIz-65-2" value="正確" style="rounded=1;whiteSpace=wrap;html=1;" vertex="1" parent="1">
          <mxGeometry x="294" y="520" width="120" height="60" as="geometry" />
        </mxCell>
        <mxCell id="3rowkWECRtVdp-gIz-65-3" value="錯誤" style="rounded=1;whiteSpace=wrap;html=1;" vertex="1" parent="1">
          <mxGeometry x="430" y="520" width="120" height="60" as="geometry" />
        </mxCell>
        <mxCell id="3rowkWECRtVdp-gIz-65-4" value="指令儲存" style="rounded=1;whiteSpace=wrap;html=1;" vertex="1" parent="1">
          <mxGeometry x="430" y="420" width="120" height="60" as="geometry" />
        </mxCell>
      </root>
    </mxGraphModel>
  </diagram>
</mxfile>
